<svg xmlns="http://www.w3.org/2000/svg" xmlns:xlink="http://www.w3.org/1999/xlink" width="50" zoomAndPan="magnify" viewBox="0 0 37.5 37.499999" height="50" preserveAspectRatio="xMidYMid meet" version="1.0"><defs><filter x="0%" y="0%" width="100%" height="100%" id="ebcfac5386"><feColorMatrix values="0 0 0 0 1 0 0 0 0 1 0 0 0 0 1 0 0 0 1 0" color-interpolation-filters="sRGB"/></filter><clipPath id="1dd04e1b17"><path d="M 12 13.085938 L 18.570312 13.085938 L 18.570312 23.996094 L 12 23.996094 Z M 12 13.085938 " clip-rule="nonzero"/></clipPath><clipPath id="c0018902cb"><path d="M 0.957031 0.957031 L 36.1875 0.957031 L 36.1875 36.1875 L 0.957031 36.1875 Z M 0.957031 0.957031 " clip-rule="nonzero"/></clipPath><clipPath id="04e320bd81"><path d="M 18.570312 36.1875 C 28.300781 36.1875 36.1875 28.300781 36.1875 18.570312 C 36.1875 8.84375 28.300781 0.957031 18.570312 0.957031 C 8.84375 0.957031 0.957031 8.84375 0.957031 18.570312 C 0.957031 28.300781 8.84375 36.1875 18.570312 36.1875 Z M 18.570312 36.1875 " clip-rule="nonzero"/></clipPath><clipPath id="39ed93fd61"><path d="M 0.960938 0.960938 L 36.1875 0.960938 L 36.1875 36.1875 L 0.960938 36.1875 Z M 0.960938 0.960938 " clip-rule="nonzero"/></clipPath><clipPath id="81d8f52703"><path d="M 18.574219 36.1875 C 28.300781 36.1875 36.1875 28.300781 36.1875 18.574219 C 36.1875 8.847656 28.300781 0.960938 18.574219 0.960938 C 8.847656 0.960938 0.960938 8.847656 0.960938 18.574219 C 0.960938 28.300781 8.847656 36.1875 18.574219 36.1875 Z M 18.574219 36.1875 " clip-rule="nonzero"/></clipPath><mask id="372e8d87dd"><g filter="url(#ebcfac5386)"><rect x="-3.75" width="45" fill="#000000" y="-3.75" height="44.999999" fill-opacity="0.43"/></g></mask><clipPath id="cbfe130fb6"><path d="M 0.5 0.761719 L 8.550781 0.761719 L 8.550781 8.578125 L 0.5 8.578125 Z M 0.5 0.761719 " clip-rule="nonzero"/></clipPath><clipPath id="de42e67675"><rect x="0" width="9" y="0" height="9"/></clipPath><mask id="320480fbc9"><g filter="url(#ebcfac5386)"><rect x="-3.75" width="45" fill="#000000" y="-3.75" height="44.999999" fill-opacity="0.43"/></g></mask><clipPath id="4843ac9196"><path d="M 0.5 0.605469 L 8.316406 0.605469 L 8.316406 8.65625 L 0.5 8.65625 Z M 0.5 0.605469 " clip-rule="nonzero"/></clipPath><clipPath id="3f8384c4b6"><rect x="0" width="9" y="0" height="9"/></clipPath></defs><g clip-path="url(#1dd04e1b17)"><path fill="#d5d5d4" d="M 17.746094 13.152344 C 17.921875 13.152344 18.089844 13.21875 18.222656 13.351562 C 18.484375 13.613281 18.484375 14.039062 18.222656 14.308594 L 14.019531 18.515625 L 18.289062 22.78125 C 18.550781 23.039062 18.550781 23.46875 18.289062 23.738281 C 18.03125 23.996094 17.601562 23.996094 17.332031 23.738281 L 12.113281 18.507812 L 17.265625 13.351562 C 17.402344 13.21875 17.570312 13.152344 17.746094 13.152344 Z M 17.746094 13.152344 " fill-opacity="1" fill-rule="nonzero"/></g><g clip-path="url(#c0018902cb)"><g clip-path="url(#04e320bd81)"><path fill="#ffffff" d="M 36.1875 36.1875 L 0.957031 36.1875 L 0.957031 0.957031 L 36.1875 0.957031 Z M 36.1875 36.1875 " fill-opacity="1" fill-rule="nonzero"/></g></g><g clip-path="url(#39ed93fd61)"><g clip-path="url(#81d8f52703)"><path stroke-linecap="butt" transform="matrix(-0.68189, 0, 0, -0.68189, 36.186039, 36.186039)" fill="none" stroke-linejoin="miter" d="M 25.827963 -0.00214308 C 11.563833 -0.00214308 -0.00214234 11.563832 -0.00214234 25.827962 C -0.00214234 40.092092 11.563833 51.658067 25.827963 51.658067 C 40.092093 51.658067 51.658068 40.092092 51.658068 25.827962 C 51.658068 11.563832 40.092093 -0.00214308 25.827963 -0.00214308 Z M 25.827963 -0.00214308 " stroke="#f0f0f0" stroke-width="2.170825" stroke-opacity="1" stroke-miterlimit="4"/></g></g><g mask="url(#372e8d87dd)"><g transform="matrix(1, 0, 0, 1, 13, 17)"><g clip-path="url(#de42e67675)"><g clip-path="url(#cbfe130fb6)"><path stroke-linecap="round" transform="matrix(0.482169, 0.482169, -0.482169, 0.482169, 1.70031, 0.857565)" fill="none" stroke-linejoin="miter" d="M 0.997219 0.999483 L 12.258186 0.999483 " stroke="#545454" stroke-width="2" stroke-opacity="1" stroke-miterlimit="4"/></g></g></g></g><g mask="url(#320480fbc9)"><g transform="matrix(1, 0, 0, 1, 13, 11)"><g clip-path="url(#3f8384c4b6)"><g clip-path="url(#4843ac9196)"><path stroke-linecap="round" transform="matrix(0.482169, -0.482169, 0.482169, 0.482169, 0.546335, 7.521582)" fill="none" stroke-linejoin="miter" d="M 0.99916 1.003008 L 12.653045 0.998958 " stroke="#545454" stroke-width="2" stroke-opacity="1" stroke-miterlimit="4"/></g></g></g></g></svg>