<?xml version="1.0" encoding="UTF-8" standalone="no"?>
<!-- Created with Inkscape (http://www.inkscape.org/) -->

<svg
   version="1.1"
   id="svg2"
   xml:space="preserve"
   width="276.64398"
   height="276.64532"
   viewBox="0 0 276.64398 276.64533"
   sodipodi:docname="4a60da82b5043e21437cdce767ba9bf8-1.pdf"
   xmlns:inkscape="http://www.inkscape.org/namespaces/inkscape"
   xmlns:sodipodi="http://sodipodi.sourceforge.net/DTD/sodipodi-0.dtd"
   xmlns="http://www.w3.org/2000/svg"
   xmlns:svg="http://www.w3.org/2000/svg"><defs
     id="defs6"><clipPath
       clipPathUnits="userSpaceOnUse"
       id="clipPath16"><path
         d="M 0,477.723 H 613.6 V 0 H 0 Z"
         id="path14" /></clipPath></defs><sodipodi:namedview
     id="namedview4"
     pagecolor="#ffffff"
     bordercolor="#666666"
     borderopacity="1.0"
     inkscape:pageshadow="2"
     inkscape:pageopacity="0.0"
     inkscape:pagecheckerboard="0" /><g
     id="g8"
     inkscape:groupmode="layer"
     inkscape:label="4a60da82b5043e21437cdce767ba9bf8-1"
     transform="matrix(1.3333333,0,0,-1.3333333,-270.74479,456.80466)"><g
       id="g10"><g
         id="g12"
         clip-path="url(#clipPath16)"><g
           id="g18"
           transform="translate(383.9956,181.0395)"><path
             d="m 0,0 c -1.433,1.779 -2.984,3.677 -4.413,5.425 l -1.87,2.29 c 8.187,6.5 12.39,17.37 10.477,27.202 -0.091,0.466 -0.208,0.927 -0.326,1.387 H 16.871 C 13.815,22.94 7.977,10.623 0,0 m -30.15,-26.392 c 1.276,0.81 2.512,1.705 3.692,2.699 0.014,0.012 0.036,0.029 0.052,0.043 0.554,0.464 1.255,1.096 1.219,1.36 -0.048,0.356 -0.865,1.459 -1.418,2.139 -0.669,0.825 -1.589,1.939 -2.867,3.486 -2.693,3.261 -6.374,7.694 -10.286,12.409 -2.128,2.564 -4.324,5.21 -6.469,7.797 0.158,-0.081 0.311,-0.17 0.47,-0.249 9.811,-4.859 22.661,-4.337 34.403,1.395 l 7.658,-9.301 c -7.431,-8.735 -16.387,-16.132 -26.454,-21.778 m -47.044,-12.273 c -15.027,0 -29.263,3.454 -41.956,9.609 6.798,-2.82 14.35,-3.287 21.48,-1.141 10.268,3.092 18.49,11.859 20.47,21.823 1.98,-9.964 10.203,-18.731 20.471,-21.823 7.145,-2.15 14.714,-1.678 21.523,1.157 -12.701,-6.164 -26.948,-9.625 -41.988,-9.625 m -73.505,34.056 7.653,9.296 c 11.742,-5.732 24.592,-6.254 34.403,-1.395 0.159,0.079 0.312,0.168 0.47,0.249 -2.145,-2.587 -4.341,-5.233 -6.469,-7.797 -3.912,-4.715 -7.593,-9.148 -10.286,-12.409 -1.278,-1.547 -2.198,-2.661 -2.866,-3.486 -0.554,-0.68 -1.371,-1.783 -1.419,-2.139 -0.036,-0.264 0.665,-0.896 1.219,-1.36 0.016,-0.014 0.038,-0.031 0.052,-0.043 1.147,-0.966 2.346,-1.84 3.583,-2.632 -10.021,5.638 -18.937,13.013 -26.34,21.716 m -7.569,40.913 c -0.118,-0.46 -0.235,-0.921 -0.326,-1.387 -1.912,-9.832 2.29,-20.702 10.477,-27.202 l -1.87,-2.29 c -1.427,-1.746 -2.977,-3.642 -4.408,-5.419 -7.976,10.622 -13.812,22.936 -16.867,36.298 z m 3.873,79.334 c 1.431,-1.777 2.981,-3.673 4.408,-5.419 l 1.87,-2.29 c -8.187,-6.5 -12.389,-17.37 -10.477,-27.202 0.091,-0.466 0.208,-0.927 0.326,-1.387 h -12.993 c 3.055,13.362 8.891,25.676 16.866,36.298 m 30.033,26.33 c -1.236,-0.792 -2.434,-1.665 -3.579,-2.631 -0.015,-0.012 -0.037,-0.029 -0.053,-0.042 -0.554,-0.465 -1.255,-1.097 -1.219,-1.361 0.048,-0.356 0.865,-1.459 1.419,-2.139 0.668,-0.825 1.588,-1.939 2.866,-3.485 2.693,-3.261 6.374,-7.695 10.286,-12.41 2.128,-2.564 4.324,-5.21 6.469,-7.797 -0.158,0.081 -0.311,0.17 -0.47,0.249 -9.811,4.859 -22.661,4.337 -34.403,-1.394 l -7.653,9.295 c 7.402,8.702 16.317,16.076 26.337,21.715 m 47.168,12.342 c 15.04,0 29.285,-3.461 41.986,-9.626 -6.808,2.836 -14.377,3.307 -21.521,1.157 -10.268,-3.091 -18.491,-11.859 -20.471,-21.823 -1.98,9.964 -10.202,18.732 -20.47,21.823 -7.13,2.146 -14.681,1.679 -21.478,-1.14 12.692,6.154 26.927,9.609 41.954,9.609 m 73.498,-34.052 -7.658,-9.3 c -11.742,5.731 -24.592,6.253 -34.403,1.394 -0.159,-0.079 -0.312,-0.168 -0.47,-0.249 2.145,2.587 4.341,5.233 6.469,7.797 3.912,4.715 7.593,9.149 10.286,12.41 1.278,1.546 2.198,2.66 2.867,3.485 0.553,0.68 1.37,1.783 1.418,2.139 0.036,0.264 -0.665,0.896 -1.219,1.361 -0.016,0.013 -0.038,0.03 -0.052,0.042 -1.179,0.994 -2.414,1.887 -3.688,2.697 10.065,-5.646 19.019,-13.042 26.45,-21.776 M 3.868,79.34 c 0.118,0.46 0.235,0.921 0.326,1.387 1.913,9.832 -2.29,20.702 -10.477,27.202 l 1.87,2.29 c 1.428,1.748 2.98,3.646 4.413,5.425 C 7.977,105.021 13.814,92.705 16.87,79.34 Z M -7.108,18.168 c -0.561,-0.622 -1.091,-1.211 -1.792,-1.756 -0.075,-0.059 -0.186,-0.156 -0.325,-0.276 -1.442,-1.258 -2.37,-1.754 -2.772,-1.479 -0.482,0.789 -2.046,2.684 -6.297,7.83 -1.857,2.25 -3.712,4.495 -4.927,5.999 -0.465,0.575 -1.207,1.457 -2.11,2.531 -3.61,4.293 -10.332,12.285 -11.175,14.902 -0.483,1.503 -0.324,3.009 0.473,4.475 1.206,2.219 3.861,4.159 6.763,4.941 8.853,2.394 20.332,-3.872 24.674,-11.073 4.213,-6.987 4.492,-15.78 0.695,-21.881 -0.361,-0.579 -0.782,-1.193 -1.323,-1.931 -0.428,-0.589 -0.843,-1.159 -1.314,-1.659 -0.198,-0.21 -0.384,-0.418 -0.57,-0.623 M -68.885,4.76 c 0.372,0.589 0.801,1.202 1.345,1.93 0.416,0.565 0.843,1.147 1.335,1.661 0.2,0.21 0.389,0.417 0.576,0.621 0.57,0.623 1.11,1.211 1.821,1.757 0.494,0.379 1.916,1.411 2.521,1.808 1.444,-1.734 8.578,-10.38 11.922,-14.455 0.473,-0.577 1.227,-1.461 2.148,-2.538 3.664,-4.291 10.486,-12.279 11.341,-14.894 0.485,-1.485 0.332,-2.974 -0.457,-4.425 -1.215,-2.237 -3.92,-4.193 -6.891,-4.984 -1.228,-0.327 -2.513,-0.479 -3.826,-0.479 -8.065,0 -17.219,5.744 -21.129,12.126 -4.275,6.984 -4.56,15.773 -0.706,21.872 m 19.52,112.803 c -3.344,-4.076 -10.478,-12.722 -11.922,-14.456 -0.605,0.397 -2.027,1.429 -2.521,1.808 -0.711,0.547 -1.251,1.134 -1.821,1.757 -0.187,0.204 -0.376,0.411 -0.576,0.622 -0.492,0.513 -0.919,1.095 -1.335,1.66 -0.544,0.728 -0.973,1.341 -1.345,1.93 -3.854,6.099 -3.569,14.888 0.706,21.872 3.91,6.382 13.064,12.126 21.129,12.126 1.313,0 2.598,-0.152 3.826,-0.479 2.971,-0.79 5.676,-2.747 6.891,-4.983 0.789,-1.452 0.942,-2.941 0.457,-4.426 -0.855,-2.615 -7.677,-10.603 -11.341,-14.894 -0.921,-1.077 -1.675,-1.961 -2.148,-2.537 m 31.575,-14.481 c -3.374,-3.13 -8.109,-5.595 -13.611,-7.027 -8.015,-2.086 -16.565,-0.585 -23.657,4.099 3.595,4.022 8.583,7.04 14.145,8.511 8.145,2.156 16.854,0.494 23.961,-4.55 -0.267,-0.329 -0.559,-0.688 -0.838,-1.033 M -29.27,60.309 c -2.902,0.782 -5.557,2.723 -6.763,4.941 -0.797,1.466 -0.956,2.972 -0.473,4.475 0.843,2.618 7.565,10.609 11.175,14.902 0.903,1.074 1.645,1.956 2.11,2.531 1.215,1.504 3.07,3.749 4.927,5.999 4.251,5.146 5.815,7.041 6.297,7.831 0.402,0.275 1.33,-0.222 2.772,-1.48 0.139,-0.12 0.25,-0.217 0.325,-0.276 0.701,-0.545 1.231,-1.134 1.792,-1.756 0.186,-0.204 0.372,-0.413 0.57,-0.623 0.471,-0.5 0.886,-1.07 1.314,-1.659 0.541,-0.737 0.962,-1.352 1.323,-1.931 3.797,-6.101 3.518,-14.894 -0.695,-21.881 -4.342,-7.2 -15.821,-13.467 -24.674,-11.073 m -75.765,-62.227 c 3.344,4.075 10.478,12.721 11.922,14.455 0.605,-0.397 2.027,-1.429 2.521,-1.808 0.712,-0.546 1.251,-1.134 1.821,-1.757 0.188,-0.204 0.377,-0.411 0.576,-0.621 0.492,-0.514 0.919,-1.096 1.335,-1.661 0.544,-0.728 0.973,-1.341 1.345,-1.93 3.854,-6.099 3.569,-14.888 -0.706,-21.872 -3.909,-6.382 -13.063,-12.126 -21.129,-12.126 -1.313,0 -2.597,0.152 -3.826,0.479 -2.97,0.791 -5.676,2.747 -6.891,4.984 -0.789,1.451 -0.941,2.94 -0.457,4.425 0.855,2.615 7.677,10.603 11.341,14.894 0.921,1.077 1.675,1.961 2.148,2.538 m -31.575,14.48 c 3.374,3.13 8.109,5.595 13.611,7.028 8.015,2.085 16.565,0.584 23.658,-4.1 -3.596,-4.022 -8.584,-7.04 -14.145,-8.511 -8.146,-2.155 -16.855,-0.494 -23.962,4.55 0.267,0.329 0.559,0.689 0.838,1.033 m -13.194,31.7 c 4.342,7.201 15.821,13.467 24.675,11.073 2.902,-0.782 5.557,-2.722 6.762,-4.941 0.797,-1.466 0.956,-2.972 0.473,-4.475 -0.843,-2.617 -7.565,-10.609 -11.175,-14.902 -0.903,-1.074 -1.645,-1.956 -2.11,-2.531 -1.215,-1.504 -3.069,-3.749 -4.927,-5.999 -4.251,-5.146 -5.815,-7.041 -6.297,-7.83 -0.402,-0.275 -1.33,0.221 -2.772,1.479 -0.139,0.12 -0.25,0.217 -0.325,0.276 -0.701,0.545 -1.231,1.134 -1.792,1.756 -0.186,0.205 -0.372,0.413 -0.57,0.623 -0.471,0.5 -0.886,1.07 -1.314,1.659 -0.541,0.738 -0.962,1.352 -1.323,1.931 -3.797,6.101 -3.518,14.894 0.695,21.881 m 2.512,53.214 c 0.561,0.622 1.091,1.211 1.792,1.756 0.075,0.059 0.186,0.156 0.325,0.276 1.442,1.258 2.37,1.755 2.772,1.48 0.482,-0.79 2.046,-2.685 6.297,-7.831 1.858,-2.25 3.712,-4.495 4.927,-5.999 0.465,-0.575 1.207,-1.457 2.11,-2.531 3.61,-4.293 10.332,-12.284 11.175,-14.902 0.483,-1.503 0.324,-3.009 -0.473,-4.475 -1.205,-2.218 -3.86,-4.159 -6.762,-4.941 -8.854,-2.394 -20.333,3.873 -24.675,11.073 -4.213,6.987 -4.492,15.78 -0.695,21.881 0.361,0.579 0.782,1.194 1.323,1.931 0.428,0.589 0.843,1.159 1.314,1.659 0.198,0.21 0.384,0.419 0.57,0.623 m 58.521,9.196 c -0.57,-0.623 -1.109,-1.21 -1.821,-1.757 -0.494,-0.379 -1.916,-1.411 -2.521,-1.808 -1.444,1.734 -8.578,10.38 -11.922,14.456 -0.473,0.576 -1.227,1.46 -2.148,2.537 -3.664,4.291 -10.486,12.279 -11.341,14.894 -0.484,1.485 -0.332,2.974 0.457,4.426 1.215,2.236 3.921,4.193 6.891,4.983 1.229,0.327 2.513,0.479 3.826,0.479 8.066,0 17.22,-5.744 21.129,-12.126 4.275,-6.984 4.56,-15.773 0.706,-21.872 -0.372,-0.589 -0.8,-1.202 -1.345,-1.93 -0.416,-0.565 -0.842,-1.147 -1.335,-1.66 -0.199,-0.211 -0.388,-0.418 -0.576,-0.622 m -48.677,-2.557 c 7.107,5.044 15.816,6.706 23.962,4.55 5.561,-1.471 10.549,-4.489 14.145,-8.511 -7.093,-4.684 -15.643,-6.185 -23.658,-4.099 -5.502,1.432 -10.237,3.897 -13.611,7.028 -0.279,0.344 -0.571,0.703 -0.838,1.032 M -156.004,42.18 h -16.405 c -0.833,5.093 -1.274,10.316 -1.274,15.64 0,5.326 0.441,10.55 1.275,15.644 h 16.404 c 3.58,-6.787 10.014,-12.274 17.576,-14.586 1.613,-0.493 3.249,-0.835 4.893,-1.056 -1.644,-0.221 -3.28,-0.563 -4.893,-1.056 -7.562,-2.312 -13.996,-7.799 -17.576,-14.586 M -77.2,1.371 c -1.256,6.711 -5.014,13.097 -10.627,17.488 l 1.816,2.192 c 2.227,2.682 4.75,5.722 6.684,8.143 l -0.707,0.564 c -0.066,0.049 -3.63,2.74 -3.851,2.907 l -3.537,2.683 -0.087,0.061 -0.645,-0.82 -0.604,-0.763 0.017,0.017 -0.012,-0.017 c 0.202,-0.136 2.103,-0.964 0.865,-3.752 -0.019,-0.027 -0.038,-0.042 -0.061,-0.098 -0.306,-0.724 -0.878,-1.485 -1.14,-1.833 -0.138,-0.181 -0.284,-0.37 -0.427,-0.554 -1.478,-1.894 -2.935,-3.724 -4.244,-5.347 -11.691,5.377 -24.363,5.795 -34.097,1.066 2.081,2.549 4.207,5.15 6.265,7.668 3.829,4.686 7.423,9.084 10.053,12.316 4.565,5.614 4.565,5.614 4.23,5.936 -0.006,0.005 -0.079,0.066 -0.195,0.155 -0.27,0.209 -0.823,0.636 -1.105,0.878 -4.871,4.171 -10.655,6.742 -16.651,7.561 5.996,0.82 11.78,3.391 16.651,7.561 0.282,0.242 0.835,0.669 1.105,0.878 0.116,0.089 0.189,0.15 0.195,0.155 0.335,0.322 0.335,0.322 -4.23,5.936 -2.63,3.232 -6.224,7.63 -10.053,12.316 -2.058,2.519 -4.184,5.12 -6.265,7.668 9.734,-4.729 22.406,-4.311 34.097,1.067 1.309,-1.624 2.766,-3.454 4.244,-5.348 0.143,-0.184 0.289,-0.372 0.427,-0.554 0.262,-0.348 0.834,-1.109 1.14,-1.833 0.023,-0.056 0.042,-0.07 0.061,-0.098 1.238,-2.788 -0.663,-3.616 -0.865,-3.752 l 0.012,-0.016 -0.017,0.016 0.604,-0.762 0.645,-0.821 0.087,0.061 3.538,2.683 c 0.22,0.167 3.784,2.858 3.85,2.907 l 0.707,0.564 c -1.934,2.421 -4.457,5.461 -6.684,8.143 l -1.816,2.192 c 5.613,4.391 9.371,10.777 10.627,17.488 1.256,-6.711 5.014,-13.097 10.628,-17.488 l -1.817,-2.192 c -2.227,-2.682 -4.749,-5.722 -6.684,-8.143 l 0.708,-0.564 c 0.065,-0.049 3.629,-2.74 3.85,-2.907 l 3.538,-2.683 0.086,-0.061 0.645,0.821 0.604,0.762 -0.017,-0.016 0.013,0.016 c -0.202,0.136 -2.104,0.964 -0.866,3.752 0.02,0.028 0.038,0.042 0.062,0.098 0.306,0.724 0.877,1.485 1.14,1.833 0.127,0.168 0.263,0.344 0.395,0.515 1.489,1.908 2.958,3.752 4.275,5.387 11.691,-5.378 24.363,-5.796 34.097,-1.067 -2.081,-2.548 -4.207,-5.149 -6.265,-7.668 -3.829,-4.686 -7.423,-9.084 -10.053,-12.316 -4.565,-5.614 -4.565,-5.614 -4.23,-5.936 0.006,-0.005 0.079,-0.066 0.195,-0.155 0.27,-0.209 0.823,-0.636 1.105,-0.878 4.872,-4.17 10.655,-6.741 16.651,-7.561 -5.996,-0.819 -11.779,-3.39 -16.651,-7.561 -0.282,-0.242 -0.835,-0.669 -1.105,-0.878 -0.116,-0.089 -0.189,-0.15 -0.195,-0.155 -0.335,-0.322 -0.335,-0.322 4.23,-5.936 2.63,-3.232 6.224,-7.63 10.053,-12.316 2.058,-2.518 4.184,-5.119 6.265,-7.668 -9.734,4.729 -22.406,4.312 -34.097,-1.066 -1.317,1.634 -2.786,3.478 -4.275,5.386 -0.132,0.171 -0.268,0.347 -0.395,0.515 -0.263,0.348 -0.835,1.109 -1.141,1.833 -0.023,0.056 -0.041,0.071 -0.061,0.098 -1.238,2.788 0.664,3.616 0.866,3.752 l -0.013,0.017 0.017,-0.017 -0.604,0.763 -0.645,0.82 -0.086,-0.061 -3.538,-2.683 c -0.221,-0.167 -3.785,-2.858 -3.85,-2.907 l -0.708,-0.564 c 1.935,-2.421 4.457,-5.461 6.684,-8.143 l 1.817,-2.192 C -72.186,14.468 -75.944,8.082 -77.2,1.371 m 60.248,10.158 c -7.107,-5.044 -15.816,-6.705 -23.961,-4.55 -5.562,1.471 -10.55,4.489 -14.145,8.511 7.092,4.684 15.642,6.185 23.657,4.1 5.502,-1.433 10.237,-3.898 13.611,-7.028 0.279,-0.345 0.571,-0.704 0.838,-1.033 M 19.292,57.82 c 0,-5.324 -0.441,-10.547 -1.274,-15.64 H 1.604 c -3.58,6.787 -10.014,12.274 -17.576,14.586 -1.613,0.493 -3.249,0.835 -4.893,1.056 1.644,0.221 3.28,0.563 4.893,1.056 7.562,2.312 13.996,7.799 17.576,14.586 H 18.017 C 18.851,68.37 19.292,63.146 19.292,57.82 m -96.486,103.744 c -57.204,0 -103.743,-46.54 -103.743,-103.744 0,-57.2 46.539,-103.74 103.743,-103.74 57.201,0 103.74,46.54 103.74,103.74 0,57.204 -46.539,103.744 -103.74,103.744"
             style="fill:#231f20;fill-opacity:1;fill-rule:nonzero;stroke:none"
             id="path20" /></g></g></g></g></svg>
