<svg xmlns="http://www.w3.org/2000/svg" xmlns:xlink="http://www.w3.org/1999/xlink" width="1000" zoomAndPan="magnify" viewBox="0 0 750 225" height="300" preserveAspectRatio="xMidYMid meet" version="1.0"><defs><g/><clipPath id="cfb2d312aa"><path d="M 0 22.890625 L 750 22.890625 L 750 202.5 L 0 202.5 Z M 0 22.890625 " clip-rule="nonzero"/></clipPath><clipPath id="9d220b5d2c"><path d="M 38.25 22.890625 L 711.75 22.890625 C 732.875 22.890625 750 40.015625 750 61.140625 L 750 164.25 C 750 185.375 732.875 202.5 711.75 202.5 L 38.25 202.5 C 17.125 202.5 0 185.375 0 164.25 L 0 61.140625 C 0 40.015625 17.125 22.890625 38.25 22.890625 Z M 38.25 22.890625 " clip-rule="nonzero"/></clipPath><clipPath id="a2ad2e2711"><path d="M 56.574219 100.796875 L 79 100.796875 L 79 123.296875 L 56.574219 123.296875 Z M 56.574219 100.796875 " clip-rule="nonzero"/></clipPath><clipPath id="a696e805f5"><path d="M 108.640625 88.667969 L 161.890625 88.667969 L 161.890625 141.917969 L 108.640625 141.917969 Z M 108.640625 88.667969 " clip-rule="nonzero"/></clipPath></defs><g clip-path="url(#cfb2d312aa)"><g clip-path="url(#9d220b5d2c)"><path fill="#121211" d="M 0 22.890625 L 750.015625 22.890625 L 750.015625 202.5 L 0 202.5 Z M 0 22.890625 " fill-opacity="1" fill-rule="nonzero"/></g></g><g clip-path="url(#a2ad2e2711)"><path fill="#45ff65" d="M 56.574219 111.898438 C 56.574219 108.824219 57.980469 106.066406 59.996094 104.050781 C 62.011719 102.035156 64.769531 100.796875 67.847656 100.796875 C 70.925781 100.796875 73.675781 102.042969 75.691406 104.058594 C 77.707031 106.074219 78.914062 108.824219 78.914062 111.898438 C 78.914062 114.976562 77.832031 117.855469 75.816406 119.878906 C 73.800781 121.898438 70.917969 123.128906 67.839844 123.128906 C 64.765625 123.128906 62.125 121.644531 60.109375 119.628906 C 58.09375 117.613281 56.574219 114.976562 56.574219 111.898438 Z M 56.574219 111.898438 " fill-opacity="1" fill-rule="nonzero"/></g><g clip-path="url(#a696e805f5)"><path fill="#ffffff" d="M 159.773438 88.667969 L 110.53125 88.667969 C 110.28125 88.667969 110.039062 88.714844 109.808594 88.8125 C 109.574219 88.90625 109.371094 89.046875 109.195312 89.222656 C 109.015625 89.398438 108.878906 89.605469 108.78125 89.835938 C 108.6875 90.070312 108.640625 90.3125 108.640625 90.5625 L 108.640625 124.652344 C 108.640625 124.902344 108.6875 125.144531 108.78125 125.375 C 108.878906 125.609375 109.015625 125.8125 109.195312 125.988281 C 109.371094 126.167969 109.574219 126.304688 109.808594 126.398438 C 110.039062 126.496094 110.28125 126.542969 110.53125 126.542969 L 123.789062 126.542969 L 123.789062 139.800781 C 123.789062 140.183594 123.894531 140.535156 124.109375 140.855469 C 124.320312 141.175781 124.605469 141.40625 124.957031 141.554688 C 125.3125 141.699219 125.679688 141.738281 126.054688 141.660156 C 126.429688 141.585938 126.753906 141.414062 127.023438 141.140625 L 141.617188 126.542969 L 159.773438 126.542969 C 160.023438 126.542969 160.265625 126.496094 160.496094 126.398438 C 160.730469 126.304688 160.933594 126.167969 161.113281 125.988281 C 161.289062 125.8125 161.425781 125.609375 161.523438 125.375 C 161.617188 125.144531 161.667969 124.902344 161.667969 124.652344 L 161.667969 90.5625 C 161.667969 90.3125 161.617188 90.070312 161.523438 89.835938 C 161.425781 89.605469 161.289062 89.398438 161.113281 89.222656 C 160.933594 89.046875 160.730469 88.90625 160.496094 88.8125 C 160.265625 88.714844 160.023438 88.667969 159.773438 88.667969 Z M 157.878906 122.757812 L 140.835938 122.757812 C 140.3125 122.757812 139.863281 122.941406 139.492188 123.308594 L 127.578125 135.230469 L 127.578125 124.652344 C 127.578125 124.398438 127.527344 124.15625 127.433594 123.925781 C 127.335938 123.695312 127.199219 123.488281 127.023438 123.3125 C 126.84375 123.132812 126.640625 122.996094 126.40625 122.902344 C 126.175781 122.804688 125.933594 122.757812 125.683594 122.757812 L 112.425781 122.757812 L 112.425781 92.457031 L 157.878906 92.457031 Z M 157.878906 122.757812 " fill-opacity="1" fill-rule="nonzero"/></g><g fill="#ffffff" fill-opacity="1"><g transform="translate(191.386456, 124.02495)"><g><path d="M 1.375 -15.90625 C 1.375 -17.820312 1.71875 -19.703125 2.40625 -21.546875 C 3.101562 -23.390625 4.113281 -25.066406 5.4375 -26.578125 C 6.757812 -28.097656 8.378906 -29.304688 10.296875 -30.203125 C 12.210938 -31.109375 14.394531 -31.5625 16.84375 -31.5625 C 19.726562 -31.5625 22.222656 -30.925781 24.328125 -29.65625 C 26.441406 -28.394531 28.015625 -26.742188 29.046875 -24.703125 L 24.359375 -21.484375 C 23.828125 -22.660156 23.132812 -23.59375 22.28125 -24.28125 C 21.425781 -24.976562 20.507812 -25.46875 19.53125 -25.75 C 18.5625 -26.03125 17.609375 -26.171875 16.671875 -26.171875 C 15.128906 -26.171875 13.789062 -25.859375 12.65625 -25.234375 C 11.53125 -24.617188 10.582031 -23.8125 9.8125 -22.8125 C 9.039062 -21.8125 8.472656 -20.691406 8.109375 -19.453125 C 7.742188 -18.210938 7.5625 -16.972656 7.5625 -15.734375 C 7.5625 -14.347656 7.78125 -13.015625 8.21875 -11.734375 C 8.664062 -10.453125 9.289062 -9.316406 10.09375 -8.328125 C 10.90625 -7.335938 11.878906 -6.554688 13.015625 -5.984375 C 14.148438 -5.410156 15.394531 -5.125 16.75 -5.125 C 17.726562 -5.125 18.71875 -5.285156 19.71875 -5.609375 C 20.71875 -5.929688 21.644531 -6.445312 22.5 -7.15625 C 23.351562 -7.863281 24.015625 -8.78125 24.484375 -9.90625 L 29.484375 -7.03125 C 28.867188 -5.46875 27.859375 -4.140625 26.453125 -3.046875 C 25.054688 -1.960938 23.488281 -1.140625 21.75 -0.578125 C 20.007812 -0.015625 18.285156 0.265625 16.578125 0.265625 C 14.335938 0.265625 12.285156 -0.195312 10.421875 -1.125 C 8.566406 -2.050781 6.96875 -3.285156 5.625 -4.828125 C 4.289062 -6.378906 3.25 -8.117188 2.5 -10.046875 C 1.75 -11.984375 1.375 -13.9375 1.375 -15.90625 Z M 1.375 -15.90625 "/></g></g></g><g fill="#ffffff" fill-opacity="1"><g transform="translate(224.883114, 124.02495)"><g><path d="M 29.65625 -31.390625 L 29.65625 0 L 23.609375 0 L 23.609375 -13.390625 L 9.375 -13.390625 L 9.375 0 L 3.265625 0 L 3.265625 -31.390625 L 9.375 -31.390625 L 9.375 -18.703125 L 23.609375 -18.703125 L 23.609375 -31.390625 Z M 29.65625 -31.390625 "/></g></g></g><g fill="#ffffff" fill-opacity="1"><g transform="translate(260.986926, 124.02495)"><g><path d="M 11.796875 -31.390625 L 17.984375 -31.390625 L 29.53125 0 L 23.25 0 L 20.328125 -7.828125 L 9.375 -7.828125 L 6.5 0 L 0.21875 0 Z M 19.234375 -12.109375 L 14.890625 -25.0625 L 10.390625 -12.109375 Z M 19.234375 -12.109375 "/></g></g></g><g fill="#ffffff" fill-opacity="1"><g transform="translate(293.864938, 124.02495)"><g><path d="M 26.75 -26.03125 L 16.703125 -26.03125 L 16.703125 0 L 10.65625 0 L 10.65625 -26.03125 L 0.625 -26.03125 L 0.625 -31.390625 L 26.75 -31.390625 Z M 26.75 -26.03125 "/></g></g></g><g fill="#ffffff" fill-opacity="1"><g transform="translate(324.400916, 124.02495)"><g/></g></g><g fill="#ffffff" fill-opacity="1"><g transform="translate(338.189194, 124.02495)"><g><path d="M 26.75 -26.03125 L 16.703125 -26.03125 L 16.703125 0 L 10.65625 0 L 10.65625 -26.03125 L 0.625 -26.03125 L 0.625 -31.390625 L 26.75 -31.390625 Z M 26.75 -26.03125 "/></g></g></g><g fill="#ffffff" fill-opacity="1"><g transform="translate(368.725166, 124.02495)"><g><path d="M 16.671875 0.21875 C 14.367188 0.21875 12.28125 -0.222656 10.40625 -1.109375 C 8.539062 -1.992188 6.9375 -3.191406 5.59375 -4.703125 C 4.25 -6.222656 3.207031 -7.929688 2.46875 -9.828125 C 1.738281 -11.734375 1.375 -13.6875 1.375 -15.6875 C 1.375 -17.78125 1.765625 -19.773438 2.546875 -21.671875 C 3.328125 -23.578125 4.398438 -25.273438 5.765625 -26.765625 C 7.140625 -28.253906 8.757812 -29.429688 10.625 -30.296875 C 12.5 -31.171875 14.554688 -31.609375 16.796875 -31.609375 C 19.066406 -31.609375 21.132812 -31.148438 23 -30.234375 C 24.875 -29.316406 26.472656 -28.09375 27.796875 -26.5625 C 29.128906 -25.03125 30.160156 -23.320312 30.890625 -21.4375 C 31.628906 -19.550781 32 -17.609375 32 -15.609375 C 32 -13.546875 31.613281 -11.5625 30.84375 -9.65625 C 30.082031 -7.757812 29.015625 -6.066406 27.640625 -4.578125 C 26.273438 -3.085938 24.65625 -1.914062 22.78125 -1.0625 C 20.914062 -0.207031 18.878906 0.21875 16.671875 0.21875 Z M 7.5625 -15.6875 C 7.5625 -14.332031 7.765625 -13.019531 8.171875 -11.75 C 8.585938 -10.488281 9.1875 -9.363281 9.96875 -8.375 C 10.75 -7.382812 11.707031 -6.601562 12.84375 -6.03125 C 13.976562 -5.457031 15.265625 -5.171875 16.703125 -5.171875 C 18.179688 -5.171875 19.492188 -5.472656 20.640625 -6.078125 C 21.785156 -6.679688 22.742188 -7.488281 23.515625 -8.5 C 24.285156 -9.519531 24.867188 -10.65625 25.265625 -11.90625 C 25.660156 -13.164062 25.859375 -14.425781 25.859375 -15.6875 C 25.859375 -17.039062 25.644531 -18.34375 25.21875 -19.59375 C 24.789062 -20.851562 24.1875 -21.972656 23.40625 -22.953125 C 22.625 -23.941406 21.664062 -24.722656 20.53125 -25.296875 C 19.394531 -25.878906 18.117188 -26.171875 16.703125 -26.171875 C 15.203125 -26.171875 13.882812 -25.867188 12.75 -25.265625 C 11.613281 -24.660156 10.660156 -23.851562 9.890625 -22.84375 C 9.128906 -21.84375 8.550781 -20.722656 8.15625 -19.484375 C 7.757812 -18.253906 7.5625 -16.988281 7.5625 -15.6875 Z M 7.5625 -15.6875 "/></g></g></g><g fill="#ffffff" fill-opacity="1"><g transform="translate(405.315069, 124.02495)"><g/></g></g><g fill="#ffffff" fill-opacity="1"><g transform="translate(419.103347, 124.02495)"><g><path d="M 11.796875 -31.390625 L 17.984375 -31.390625 L 29.53125 0 L 23.25 0 L 20.328125 -7.828125 L 9.375 -7.828125 L 6.5 0 L 0.21875 0 Z M 19.234375 -12.109375 L 14.890625 -25.0625 L 10.390625 -12.109375 Z M 19.234375 -12.109375 "/></g></g></g><g fill="#ffffff" fill-opacity="1"><g transform="translate(451.981354, 124.02495)"><g><path d="M 9.375 -20.15625 L 9.375 0 L 3.265625 0 L 3.265625 -31.390625 L 8.140625 -31.390625 L 24.359375 -10.703125 L 24.359375 -31.34375 L 30.453125 -31.34375 L 30.453125 0 L 25.375 0 Z M 9.375 -20.15625 "/></g></g></g><g fill="#ffffff" fill-opacity="1"><g transform="translate(488.880567, 124.02495)"><g/></g></g><g fill="#ffffff" fill-opacity="1"><g transform="translate(502.668845, 124.02495)"><g><path d="M 25.0625 -5.34375 L 25.0625 0 L 3.265625 0 L 3.265625 -31.390625 L 24.671875 -31.390625 L 24.671875 -26.03125 L 9.375 -26.03125 L 9.375 -18.484375 L 22.59375 -18.484375 L 22.59375 -13.53125 L 9.375 -13.53125 L 9.375 -5.34375 Z M 25.0625 -5.34375 "/></g></g></g><g fill="#ffffff" fill-opacity="1"><g transform="translate(532.409407, 124.02495)"><g><path d="M 6.546875 -31.390625 L 14.328125 -19.796875 L 22.0625 -31.390625 L 28.6875 -31.390625 L 17.8125 -15.46875 L 28.328125 0 L 21.703125 0 L 14.328125 -11.140625 L 6.890625 0 L 0.21875 0 L 10.734375 -15.46875 L -0.125 -31.390625 Z M 6.546875 -31.390625 "/></g></g></g><g fill="#ffffff" fill-opacity="1"><g transform="translate(564.138503, 124.02495)"><g><path d="M 3.265625 0 L 3.265625 -31.390625 L 16.578125 -31.390625 C 18.015625 -31.390625 19.335938 -31.09375 20.546875 -30.5 C 21.753906 -29.90625 22.804688 -29.109375 23.703125 -28.109375 C 24.609375 -27.109375 25.3125 -25.988281 25.8125 -24.75 C 26.3125 -23.507812 26.5625 -22.242188 26.5625 -20.953125 C 26.5625 -19.179688 26.148438 -17.5 25.328125 -15.90625 C 24.503906 -14.320312 23.367188 -13.023438 21.921875 -12.015625 C 20.484375 -11.015625 18.773438 -10.515625 16.796875 -10.515625 L 9.375 -10.515625 L 9.375 0 Z M 9.375 -15.875 L 16.4375 -15.875 C 17.175781 -15.875 17.835938 -16.078125 18.421875 -16.484375 C 19.015625 -16.898438 19.488281 -17.5 19.84375 -18.28125 C 20.195312 -19.0625 20.375 -19.953125 20.375 -20.953125 C 20.375 -22.046875 20.175781 -22.972656 19.78125 -23.734375 C 19.382812 -24.503906 18.867188 -25.078125 18.234375 -25.453125 C 17.597656 -25.835938 16.910156 -26.03125 16.171875 -26.03125 L 9.375 -26.03125 Z M 9.375 -15.875 "/></g></g></g><g fill="#ffffff" fill-opacity="1"><g transform="translate(594.851237, 124.02495)"><g><path d="M 25.0625 -5.34375 L 25.0625 0 L 3.265625 0 L 3.265625 -31.390625 L 24.671875 -31.390625 L 24.671875 -26.03125 L 9.375 -26.03125 L 9.375 -18.484375 L 22.59375 -18.484375 L 22.59375 -13.53125 L 9.375 -13.53125 L 9.375 -5.34375 Z M 25.0625 -5.34375 "/></g></g></g><g fill="#ffffff" fill-opacity="1"><g transform="translate(624.591799, 124.02495)"><g><path d="M 3.265625 0 L 3.265625 -31.390625 L 17.15625 -31.390625 C 18.59375 -31.390625 19.921875 -31.09375 21.140625 -30.5 C 22.367188 -29.90625 23.429688 -29.109375 24.328125 -28.109375 C 25.234375 -27.109375 25.925781 -25.988281 26.40625 -24.75 C 26.894531 -23.507812 27.140625 -22.242188 27.140625 -20.953125 C 27.140625 -19.628906 26.910156 -18.351562 26.453125 -17.125 C 25.992188 -15.90625 25.335938 -14.835938 24.484375 -13.921875 C 23.628906 -13.003906 22.628906 -12.296875 21.484375 -11.796875 L 28.640625 0 L 21.921875 0 L 15.46875 -10.515625 L 9.375 -10.515625 L 9.375 0 Z M 9.375 -15.875 L 17.015625 -15.875 C 17.785156 -15.875 18.460938 -16.097656 19.046875 -16.546875 C 19.640625 -17.003906 20.113281 -17.613281 20.46875 -18.375 C 20.820312 -19.144531 21 -20.003906 21 -20.953125 C 21 -21.953125 20.789062 -22.828125 20.375 -23.578125 C 19.96875 -24.328125 19.445312 -24.921875 18.8125 -25.359375 C 18.175781 -25.804688 17.488281 -26.03125 16.75 -26.03125 L 9.375 -26.03125 Z M 9.375 -15.875 "/></g></g></g><g fill="#ffffff" fill-opacity="1"><g transform="translate(657.16047, 124.02495)"><g><path d="M 26.75 -26.03125 L 16.703125 -26.03125 L 16.703125 0 L 10.65625 0 L 10.65625 -26.03125 L 0.625 -26.03125 L 0.625 -31.390625 L 26.75 -31.390625 Z M 26.75 -26.03125 "/></g></g></g></svg>