<svg xmlns="http://www.w3.org/2000/svg" xmlns:xlink="http://www.w3.org/1999/xlink" width="1000" zoomAndPan="magnify" viewBox="0 0 750 225" height="300" preserveAspectRatio="xMidYMid meet" version="1.0"><defs><g/><clipPath id="87ceadfaec"><path d="M 0 22.890625 L 750 22.890625 L 750 202.5 L 0 202.5 Z M 0 22.890625 " clip-rule="nonzero"/></clipPath><clipPath id="db986042ab"><path d="M 38.25 22.890625 L 711.75 22.890625 C 732.875 22.890625 750 40.015625 750 61.140625 L 750 164.25 C 750 185.375 732.875 202.5 711.75 202.5 L 38.25 202.5 C 17.125 202.5 0 185.375 0 164.25 L 0 61.140625 C 0 40.015625 17.125 22.890625 38.25 22.890625 Z M 38.25 22.890625 " clip-rule="nonzero"/></clipPath><clipPath id="09dace9667"><path d="M 56.574219 100.796875 L 78.125 100.796875 L 78.125 122.347656 L 56.574219 122.347656 Z M 56.574219 100.796875 " clip-rule="nonzero"/></clipPath><clipPath id="3dac536534"><path d="M 108.640625 88.667969 L 161.6875 88.667969 L 161.6875 141.714844 L 108.640625 141.714844 Z M 108.640625 88.667969 " clip-rule="nonzero"/></clipPath></defs><g clip-path="url(#87ceadfaec)"><g clip-path="url(#db986042ab)"><path fill="#121211" d="M 0 22.890625 L 750.015625 22.890625 L 750.015625 202.5 L 0 202.5 Z M 0 22.890625 " fill-opacity="1" fill-rule="nonzero"/></g></g><g clip-path="url(#09dace9667)"><path fill="#45ff65" d="M 56.574219 111.890625 C 56.574219 108.816406 57.980469 106.0625 59.996094 104.046875 C 62.007812 102.035156 64.765625 100.796875 67.835938 100.796875 C 70.910156 100.796875 73.660156 102.039062 75.671875 104.054688 C 77.6875 106.066406 78.894531 108.816406 78.894531 111.890625 C 78.894531 114.964844 77.816406 117.839844 75.800781 119.859375 C 73.785156 121.882812 70.902344 123.109375 67.832031 123.109375 C 64.757812 123.109375 62.121094 121.625 60.109375 119.613281 C 58.09375 117.597656 56.574219 114.964844 56.574219 111.890625 Z M 56.574219 111.890625 " fill-opacity="1" fill-rule="nonzero"/></g><g clip-path="url(#3dac536534)"><path fill="#ffffff" d="M 159.765625 88.667969 L 110.53125 88.667969 C 110.28125 88.667969 110.039062 88.714844 109.808594 88.8125 C 109.574219 88.90625 109.371094 89.046875 109.195312 89.222656 C 109.015625 89.398438 108.878906 89.605469 108.78125 89.835938 C 108.6875 90.070312 108.640625 90.308594 108.640625 90.5625 L 108.640625 124.648438 C 108.640625 124.898438 108.6875 125.140625 108.78125 125.371094 C 108.878906 125.605469 109.015625 125.808594 109.195312 125.984375 C 109.371094 126.164062 109.574219 126.300781 109.808594 126.398438 C 110.039062 126.492188 110.28125 126.539062 110.53125 126.539062 L 123.789062 126.539062 L 123.789062 139.796875 C 123.789062 140.179688 123.894531 140.53125 124.105469 140.851562 C 124.320312 141.167969 124.601562 141.402344 124.957031 141.550781 C 125.3125 141.695312 125.675781 141.730469 126.050781 141.65625 C 126.429688 141.582031 126.75 141.410156 127.023438 141.136719 L 141.613281 126.539062 L 159.765625 126.539062 C 160.019531 126.539062 160.261719 126.492188 160.492188 126.398438 C 160.722656 126.300781 160.929688 126.164062 161.105469 125.984375 C 161.285156 125.808594 161.421875 125.605469 161.515625 125.371094 C 161.613281 125.140625 161.660156 124.898438 161.660156 124.648438 L 161.660156 90.5625 C 161.660156 90.308594 161.613281 90.070312 161.515625 89.835938 C 161.421875 89.605469 161.285156 89.398438 161.105469 89.222656 C 160.929688 89.046875 160.722656 88.90625 160.492188 88.8125 C 160.261719 88.714844 160.019531 88.667969 159.765625 88.667969 Z M 157.875 122.753906 L 140.832031 122.753906 C 140.308594 122.753906 139.863281 122.9375 139.488281 123.304688 L 127.574219 135.226562 L 127.574219 124.648438 C 127.574219 124.394531 127.527344 124.15625 127.429688 123.921875 C 127.335938 123.691406 127.199219 123.484375 127.019531 123.308594 C 126.84375 123.128906 126.636719 122.992188 126.40625 122.898438 C 126.175781 122.800781 125.933594 122.753906 125.683594 122.753906 L 112.425781 122.753906 L 112.425781 92.457031 L 157.875 92.457031 Z M 157.875 122.753906 " fill-opacity="1" fill-rule="nonzero"/></g><g fill="#ffffff" fill-opacity="1"><g transform="translate(191.386456, 124.02495)"><g><path d="M 1.375 -15.90625 C 1.375 -17.820312 1.71875 -19.703125 2.40625 -21.546875 C 3.101562 -23.390625 4.113281 -25.066406 5.4375 -26.578125 C 6.757812 -28.097656 8.378906 -29.304688 10.296875 -30.203125 C 12.210938 -31.109375 14.394531 -31.5625 16.84375 -31.5625 C 19.726562 -31.5625 22.222656 -30.925781 24.328125 -29.65625 C 26.441406 -28.394531 28.015625 -26.742188 29.046875 -24.703125 L 24.359375 -21.484375 C 23.828125 -22.660156 23.132812 -23.59375 22.28125 -24.28125 C 21.425781 -24.976562 20.507812 -25.46875 19.53125 -25.75 C 18.5625 -26.03125 17.609375 -26.171875 16.671875 -26.171875 C 15.128906 -26.171875 13.789062 -25.859375 12.65625 -25.234375 C 11.53125 -24.617188 10.582031 -23.8125 9.8125 -22.8125 C 9.039062 -21.8125 8.472656 -20.691406 8.109375 -19.453125 C 7.742188 -18.210938 7.5625 -16.972656 7.5625 -15.734375 C 7.5625 -14.347656 7.78125 -13.015625 8.21875 -11.734375 C 8.664062 -10.453125 9.289062 -9.316406 10.09375 -8.328125 C 10.90625 -7.335938 11.878906 -6.554688 13.015625 -5.984375 C 14.148438 -5.410156 15.394531 -5.125 16.75 -5.125 C 17.726562 -5.125 18.71875 -5.285156 19.71875 -5.609375 C 20.71875 -5.929688 21.644531 -6.445312 22.5 -7.15625 C 23.351562 -7.863281 24.015625 -8.78125 24.484375 -9.90625 L 29.484375 -7.03125 C 28.867188 -5.46875 27.859375 -4.140625 26.453125 -3.046875 C 25.054688 -1.960938 23.488281 -1.140625 21.75 -0.578125 C 20.007812 -0.015625 18.285156 0.265625 16.578125 0.265625 C 14.335938 0.265625 12.285156 -0.195312 10.421875 -1.125 C 8.566406 -2.050781 6.96875 -3.285156 5.625 -4.828125 C 4.289062 -6.378906 3.25 -8.117188 2.5 -10.046875 C 1.75 -11.984375 1.375 -13.9375 1.375 -15.90625 Z M 1.375 -15.90625 "/></g></g></g><g fill="#ffffff" fill-opacity="1"><g transform="translate(224.883114, 124.02495)"><g><path d="M 29.65625 -31.390625 L 29.65625 0 L 23.609375 0 L 23.609375 -13.390625 L 9.375 -13.390625 L 9.375 0 L 3.265625 0 L 3.265625 -31.390625 L 9.375 -31.390625 L 9.375 -18.703125 L 23.609375 -18.703125 L 23.609375 -31.390625 Z M 29.65625 -31.390625 "/></g></g></g><g fill="#ffffff" fill-opacity="1"><g transform="translate(260.986926, 124.02495)"><g><path d="M 11.796875 -31.390625 L 17.984375 -31.390625 L 29.53125 0 L 23.25 0 L 20.328125 -7.828125 L 9.375 -7.828125 L 6.5 0 L 0.21875 0 Z M 19.234375 -12.109375 L 14.890625 -25.0625 L 10.390625 -12.109375 Z M 19.234375 -12.109375 "/></g></g></g><g fill="#ffffff" fill-opacity="1"><g transform="translate(293.864938, 124.02495)"><g><path d="M 26.75 -26.03125 L 16.703125 -26.03125 L 16.703125 0 L 10.65625 0 L 10.65625 -26.03125 L 0.625 -26.03125 L 0.625 -31.390625 L 26.75 -31.390625 Z M 26.75 -26.03125 "/></g></g></g><g fill="#ffffff" fill-opacity="1"><g transform="translate(324.400916, 124.02495)"><g/></g></g><g fill="#ffffff" fill-opacity="1"><g transform="translate(338.189194, 124.02495)"><g><path d="M 26.75 -26.03125 L 16.703125 -26.03125 L 16.703125 0 L 10.65625 0 L 10.65625 -26.03125 L 0.625 -26.03125 L 0.625 -31.390625 L 26.75 -31.390625 Z M 26.75 -26.03125 "/></g></g></g><g fill="#ffffff" fill-opacity="1"><g transform="translate(368.725166, 124.02495)"><g><path d="M 16.671875 0.21875 C 14.367188 0.21875 12.28125 -0.222656 10.40625 -1.109375 C 8.539062 -1.992188 6.9375 -3.191406 5.59375 -4.703125 C 4.25 -6.222656 3.207031 -7.929688 2.46875 -9.828125 C 1.738281 -11.734375 1.375 -13.6875 1.375 -15.6875 C 1.375 -17.78125 1.765625 -19.773438 2.546875 -21.671875 C 3.328125 -23.578125 4.398438 -25.273438 5.765625 -26.765625 C 7.140625 -28.253906 8.757812 -29.429688 10.625 -30.296875 C 12.5 -31.171875 14.554688 -31.609375 16.796875 -31.609375 C 19.066406 -31.609375 21.132812 -31.148438 23 -30.234375 C 24.875 -29.316406 26.472656 -28.09375 27.796875 -26.5625 C 29.128906 -25.03125 30.160156 -23.320312 30.890625 -21.4375 C 31.628906 -19.550781 32 -17.609375 32 -15.609375 C 32 -13.546875 31.613281 -11.5625 30.84375 -9.65625 C 30.082031 -7.757812 29.015625 -6.066406 27.640625 -4.578125 C 26.273438 -3.085938 24.65625 -1.914062 22.78125 -1.0625 C 20.914062 -0.207031 18.878906 0.21875 16.671875 0.21875 Z M 7.5625 -15.6875 C 7.5625 -14.332031 7.765625 -13.019531 8.171875 -11.75 C 8.585938 -10.488281 9.1875 -9.363281 9.96875 -8.375 C 10.75 -7.382812 11.707031 -6.601562 12.84375 -6.03125 C 13.976562 -5.457031 15.265625 -5.171875 16.703125 -5.171875 C 18.179688 -5.171875 19.492188 -5.472656 20.640625 -6.078125 C 21.785156 -6.679688 22.742188 -7.488281 23.515625 -8.5 C 24.285156 -9.519531 24.867188 -10.65625 25.265625 -11.90625 C 25.660156 -13.164062 25.859375 -14.425781 25.859375 -15.6875 C 25.859375 -17.039062 25.644531 -18.34375 25.21875 -19.59375 C 24.789062 -20.851562 24.1875 -21.972656 23.40625 -22.953125 C 22.625 -23.941406 21.664062 -24.722656 20.53125 -25.296875 C 19.394531 -25.878906 18.117188 -26.171875 16.703125 -26.171875 C 15.203125 -26.171875 13.882812 -25.867188 12.75 -25.265625 C 11.613281 -24.660156 10.660156 -23.851562 9.890625 -22.84375 C 9.128906 -21.84375 8.550781 -20.722656 8.15625 -19.484375 C 7.757812 -18.253906 7.5625 -16.988281 7.5625 -15.6875 Z M 7.5625 -15.6875 "/></g></g></g><g fill="#ffffff" fill-opacity="1"><g transform="translate(405.315069, 124.02495)"><g/></g></g><g fill="#ffffff" fill-opacity="1"><g transform="translate(419.103347, 124.02495)"><g><path d="M 11.796875 -31.390625 L 17.984375 -31.390625 L 29.53125 0 L 23.25 0 L 20.328125 -7.828125 L 9.375 -7.828125 L 6.5 0 L 0.21875 0 Z M 19.234375 -12.109375 L 14.890625 -25.0625 L 10.390625 -12.109375 Z M 19.234375 -12.109375 "/></g></g></g><g fill="#ffffff" fill-opacity="1"><g transform="translate(451.981354, 124.02495)"><g><path d="M 9.375 -20.15625 L 9.375 0 L 3.265625 0 L 3.265625 -31.390625 L 8.140625 -31.390625 L 24.359375 -10.703125 L 24.359375 -31.34375 L 30.453125 -31.34375 L 30.453125 0 L 25.375 0 Z M 9.375 -20.15625 "/></g></g></g><g fill="#ffffff" fill-opacity="1"><g transform="translate(488.880567, 124.02495)"><g/></g></g><g fill="#ffffff" fill-opacity="1"><g transform="translate(502.668845, 124.02495)"><g><path d="M 25.0625 -5.34375 L 25.0625 0 L 3.265625 0 L 3.265625 -31.390625 L 24.671875 -31.390625 L 24.671875 -26.03125 L 9.375 -26.03125 L 9.375 -18.484375 L 22.59375 -18.484375 L 22.59375 -13.53125 L 9.375 -13.53125 L 9.375 -5.34375 Z M 25.0625 -5.34375 "/></g></g></g><g fill="#ffffff" fill-opacity="1"><g transform="translate(532.409407, 124.02495)"><g><path d="M 6.546875 -31.390625 L 14.328125 -19.796875 L 22.0625 -31.390625 L 28.6875 -31.390625 L 17.8125 -15.46875 L 28.328125 0 L 21.703125 0 L 14.328125 -11.140625 L 6.890625 0 L 0.21875 0 L 10.734375 -15.46875 L -0.125 -31.390625 Z M 6.546875 -31.390625 "/></g></g></g><g fill="#ffffff" fill-opacity="1"><g transform="translate(564.138503, 124.02495)"><g><path d="M 3.265625 0 L 3.265625 -31.390625 L 16.578125 -31.390625 C 18.015625 -31.390625 19.335938 -31.09375 20.546875 -30.5 C 21.753906 -29.90625 22.804688 -29.109375 23.703125 -28.109375 C 24.609375 -27.109375 25.3125 -25.988281 25.8125 -24.75 C 26.3125 -23.507812 26.5625 -22.242188 26.5625 -20.953125 C 26.5625 -19.179688 26.148438 -17.5 25.328125 -15.90625 C 24.503906 -14.320312 23.367188 -13.023438 21.921875 -12.015625 C 20.484375 -11.015625 18.773438 -10.515625 16.796875 -10.515625 L 9.375 -10.515625 L 9.375 0 Z M 9.375 -15.875 L 16.4375 -15.875 C 17.175781 -15.875 17.835938 -16.078125 18.421875 -16.484375 C 19.015625 -16.898438 19.488281 -17.5 19.84375 -18.28125 C 20.195312 -19.0625 20.375 -19.953125 20.375 -20.953125 C 20.375 -22.046875 20.175781 -22.972656 19.78125 -23.734375 C 19.382812 -24.503906 18.867188 -25.078125 18.234375 -25.453125 C 17.597656 -25.835938 16.910156 -26.03125 16.171875 -26.03125 L 9.375 -26.03125 Z M 9.375 -15.875 "/></g></g></g><g fill="#ffffff" fill-opacity="1"><g transform="translate(594.851237, 124.02495)"><g><path d="M 25.0625 -5.34375 L 25.0625 0 L 3.265625 0 L 3.265625 -31.390625 L 24.671875 -31.390625 L 24.671875 -26.03125 L 9.375 -26.03125 L 9.375 -18.484375 L 22.59375 -18.484375 L 22.59375 -13.53125 L 9.375 -13.53125 L 9.375 -5.34375 Z M 25.0625 -5.34375 "/></g></g></g><g fill="#ffffff" fill-opacity="1"><g transform="translate(624.591799, 124.02495)"><g><path d="M 3.265625 0 L 3.265625 -31.390625 L 17.15625 -31.390625 C 18.59375 -31.390625 19.921875 -31.09375 21.140625 -30.5 C 22.367188 -29.90625 23.429688 -29.109375 24.328125 -28.109375 C 25.234375 -27.109375 25.925781 -25.988281 26.40625 -24.75 C 26.894531 -23.507812 27.140625 -22.242188 27.140625 -20.953125 C 27.140625 -19.628906 26.910156 -18.351562 26.453125 -17.125 C 25.992188 -15.90625 25.335938 -14.835938 24.484375 -13.921875 C 23.628906 -13.003906 22.628906 -12.296875 21.484375 -11.796875 L 28.640625 0 L 21.921875 0 L 15.46875 -10.515625 L 9.375 -10.515625 L 9.375 0 Z M 9.375 -15.875 L 17.015625 -15.875 C 17.785156 -15.875 18.460938 -16.097656 19.046875 -16.546875 C 19.640625 -17.003906 20.113281 -17.613281 20.46875 -18.375 C 20.820312 -19.144531 21 -20.003906 21 -20.953125 C 21 -21.953125 20.789062 -22.828125 20.375 -23.578125 C 19.96875 -24.328125 19.445312 -24.921875 18.8125 -25.359375 C 18.175781 -25.804688 17.488281 -26.03125 16.75 -26.03125 L 9.375 -26.03125 Z M 9.375 -15.875 "/></g></g></g><g fill="#ffffff" fill-opacity="1"><g transform="translate(657.16047, 124.02495)"><g><path d="M 26.75 -26.03125 L 16.703125 -26.03125 L 16.703125 0 L 10.65625 0 L 10.65625 -26.03125 L 0.625 -26.03125 L 0.625 -31.390625 L 26.75 -31.390625 Z M 26.75 -26.03125 "/></g></g></g></svg>