<svg id="Layer_1" data-name="Layer 1" xmlns="http://www.w3.org/2000/svg" viewBox="0 0 292.84 288.47">
  <defs>
    <style>
      .cls-1 {
        stroke: #000;
        stroke-miterlimit: 10;
        stroke-width: 5px;
      }
    </style>
  </defs>
  <path class="cls-1" d="M256.98,69.57c2.66.18,5.41-1.01,6.43,2.2,2.19,20.73,5.98,41.35,8.1,62.08.25,2.39,1.4,6.35-1.82,6.71l16.82,129.77c.83,7.66-2.75,11.2-10.14,11.71H16.33c-5.48-.14-9.76-3.29-9.93-9.03l16.99-132.44c-1.86-.43-2.33-1.43-2.26-3.29,3.54-20.67,4.58-42.26,8.12-62.85.9-5.21,1.36-5.09,6.85-4.85.09-2.75-.67-5.66,1.72-7.68,1.98-1.67,7.44-1.21,10.31-1.58,44.72-5.68,67.54-73.02,118.11-50.52,28.27,12.58,46.4,46.27,79.1,50.52,2.24.29,6.76.09,8.47.73,3.28,1.23,3.37,5.57,3.17,8.52ZM41.85,69.57h25.12c3.17,0,16.7-8.88,19.87-11.19,17.67-12.91,37.01-25.19,60.67-23.74,21.01,1.29,42.01,11.42,58.35,23.35,3.1,2.27,17.26,11.57,20.25,11.57h24.73v-3.07c-16.09.15-31.1-8.12-43.51-17.65-16.87-12.97-35.67-36.25-58.29-37.58-25.04-1.47-43,21.48-60.62,35.67-13.03,10.5-28.64,19.7-45.96,19.62l-.58.57-.05,2.44ZM212.12,69.57l-12.06-8.45c-14.03-10.76-36.49-20.88-54.87-20.74-17.72.14-35.97,7.82-49.08,18.44-4.73,3.83-9.78,7.25-14.75,10.75h130.77ZM258.14,75.7H34.94s-7.67,59.44-7.67,59.44c18.5.32,37.01,3.84,54.06,10.95,24.86,10.37,40.08,19.62,68.86,18.6,25.23-.89,37.5-8.18,59.36-17.72,16.54-7.22,34.52-11.03,52.59-11.84,1.11-.05,2.24-.12,3.27.4l-7.28-59.83ZM29.82,141.34l-.62.92-16.88,129.23c-.18,1.66.02,3.28,1.63,4.11h265.18s1.34-1.34,1.34-1.34l-16.94-132.81c-18.21-.17-36.23,4.43-52.82,11.65-23.21,10.11-34.92,16.91-61.67,17.33-31.37.49-44.31-8.33-71.54-19.36-15.1-6.11-31.33-9.53-47.68-9.74Z"/>
</svg>